#!OML:ASF E:\Steps\Project 1\Capture day 1\Session 2\Subject.ASF
:FULLY-SPECIFIED
:DEGREES
569
root -6.40557 16.1628 -10.2564 -154.924 85.7099 -181.382
lowerback -26.3878 -3.2676 -5.73243
upperback -0.602289 -2.59996 1.32351
thorax 14.4857 -1.57627 3.86376
lowerneck -21.725 1.3173 5.09763
upperneck 41.577 5.23208 -7.53496
head 20.5332 2.30975 -3.33997
rclavicle -8.39865e-015 1.74931e-014
rhumerus -40.573 -17.6601 -78.072
rradius 36.2532
rwrist -4.9413
rhand 34.6536 -63.4418
rfingers 7.12502
rthumb 57.835 -79.3104
lclavicle -8.39865e-015 1.74931e-014
lhumerus -28.147 -2.95867 81.4648
lradius 26.7543
lwrist -0.735079
lhand -21.3705 -11.3139
lfingers 7.12502
lthumb 5.0166 18.6067
rfemur -41.7867 12.5004 11.545
rtibia 35.7457
rfoot -27.4235 -2.30025
rtoes -36.2079
lfemur -29.5117 -15.2051 -15.3525
ltibia 13.7505
lfoot -10.1406 -1.06708
ltoes -29.1396
570
root -6.41492 16.1646 -10.2819 -152.701 86.3724 -179.209
lowerback -26.4657 -3.00193 -5.49278
upperback -0.645078 -2.29861 1.20593
thorax 14.4248 -1.41461 3.70522
lowerneck -21.7672 1.31324 5.1233
upperneck 41.5917 5.18754 -7.49216
head 20.5483 2.30085 -3.33447
rclavicle 2.26615e-014 -2.28602e-014
rhumerus -40.6861 -17.9866 -77.8777
rradius 36.054
rwrist -4.54767
rhand 34.7586 -63.5671
rfingers 7.12502
rthumb 57.9266 -79.3542
lclavicle 2.26615e-014 -2.28602e-014
lhumerus -28.1366 -2.91853 81.39
lradius 26.5537
lwrist -0.347
lhand -21.7542 -10.9093
lfingers 7.12502
lthumb 4.64616 19.0197
rfemur -41.5726 11.7374 12.5504
rtibia 35.8239
rfoot -27.5085 -3.25686
rtoes -33.9075
lfemur -29.4532 -15.2659 -15.2499
ltibia 13.5911
lfoot -10.1392 -0.600841
ltoes -26.5884
571
root -6.41611 16.1663 -10.3003 -152.07 86.9153 -178.526
lowerback -26.4822 -2.8197 -5.48519
upperback -0.666667 -2.042 1.09271
thorax 14.3735 -1.29115 3.66886
lowerneck -21.7869 1.30711 5.13184
upperneck 41.5773 5.12861 -7.41885
head 20.5324 2.28731 -3.31144
rclavicle 2.13694e-015 -2.76311e-014
rhumerus -40.8811 -18.1104 -77.6538
rradius 36.0357
rwrist -4.47284
rhand 34.9102 -63.8229
rfingers 7.12502
rthumb 58.059 -79.4913
lclavicle 2.13694e-015 -2.76311e-014
lhumerus -28.1294 -2.61475 81.266
lradius 26.2386
lwrist -0.50302
lhand -22.0005 -10.8435
lfingers 7.12502
lthumb 4.40828 19.0906
rfemur -41.1609 11.4342 13.2931
rtibia 35.8571
rfoot -27.6353 -4.2305
rtoes -32.788
lfemur -29.2581 -15.4828 -15.2669
ltibia 13.4363
lfoot -10.2556 -0.161706
ltoes -24.0767
572
root -6.41648 16.1686 -10.3138 -150.103 87.4173 -176.639
lowerback -26.6597 -2.7768 -5.59118
upperback -0.686425 -1.94308 1.11308
thorax 14.4419 -1.25543 3.79078
lowerneck -21.8162 1.33663 5.23876
upperneck 41.5191 5.0818 -7.38628
head 20.4971 2.28507 -3.32359
rclavicle 3.67752e-015 -6.75868e-015
rhumerus -40.9244 -18.1741 -77.4768
rradius 35.9285
rwrist -4.16583
rhand 34.9862 -63.8906
rfingers 7.12502
rthumb 58.1251 -79.4992
lclavicle 3.67752e-015 -6.75868e-015
lhumerus -28.0607 -1.79495 81.0406
lradius 25.8361
lwrist -1.05848
lhand -21.7503 -11.0282
lfingers 7.12502
lthumb 4.64984 18.9008
rfemur -40.9357 10.9513 14.1047
rtibia 35.9489
rfoot -27.7256 -4.69344
rtoes -31.5598
lfemur -29.2507 -15.4888 -15.2148
ltibia 13.3378
lfoot -10.3621 0.159514
ltoes -22.1327
573
root -6.41737 16.1715 -10.3261 -141.835 87.7907 -168.536
lowerback -26.9666 -2.74071 -5.46894
upperback -0.678883 -1.93057 1.23033
thorax 14.6193 -1.25074 3.85907
lowerneck -21.92 1.38468 5.34787
upperneck 41.4486 5.05698 -7.36547
head 20.4795 2.28614 -3.33772
rclavicle 8.44835e-016 1.19271e-015
rhumerus -40.6881 -18.7695 -77.0799
rradius 35.4789
rwrist -3.31798
rhand 34.9728 -63.8823
rfingers 7.12502
rthumb 58.1135 -79.5014
lclavicle 8.44835e-016 1.19271e-015
lhumerus -28.0107 -1.60001 81.0104
lradius 25.5953
lwrist -0.854116
lhand -21.9039 -10.9168
lfingers 7.12502
lthumb 4.50152 19.0153
rfemur -40.7329 9.85254 15.3759
rtibia 35.933
rfoot -27.9314 -4.57781
rtoes -29.459
lfemur -29.3644 -15.054 -14.9918
ltibia 13.277
lfoot -10.3368 0.277569
ltoes -22.759
574
root -6.41413 16.1715 -10.3383 -131.324 88.0803 -158.102
lowerback -27.1787 -2.64973 -5.21824
upperback -0.338413 -1.88393 1.36956
thorax 14.3755 -1.18507 3.65974
lowerneck -22.0156 1.41404 5.3856
upperneck 41.4542 5.06689 -7.35935
head 20.5144 2.29172 -3.34151
rclavicle 1.04859e-014 3.00165e-014
rhumerus -40.5369 -18.7184 -77.0574
rradius 35.2609
rwrist -3.59904
rhand 34.5771 -64.0406
rfingers 7.12502
rthumb 57.7682 -79.9682
lclavicle 1.04859e-014 3.00165e-014
lhumerus -28.1013 -2.12917 81.0626
lradius 25.4963
lwrist 0.154842
lhand -22.3035 -10.6124
lfingers 7.12502
lthumb 4.1157 19.3276
rfemur -40.5451 9.19531 16.5063
rtibia 36.2137
rfoot -28.3899 -4.79582
rtoes -28.948
lfemur -29.3284 -14.6434 -14.8501
ltibia 13.17
lfoot -10.3376 0.521147
ltoes -25.5304
575
root -6.41161 16.1692 -10.3513 -123.536 88.6382 -150.35
lowerback -27.2866 -2.59295 -5.31952
upperback -0.367402 -1.75605 1.28623
thorax 14.3785 -1.12949 3.6711
lowerneck -21.9985 1.38381 5.37895
upperneck 41.4568 4.98024 -7.29411
head 20.4957 2.26395 -3.32763
rclavicle 3.18055e-015 4.9895e-014
rhumerus -40.4804 -19.3467 -76.7912
rradius 34.9117
rwrist -3.18199
rhand 34.2426 -64.1556
rfingers 7.12502
rthumb 57.4755 -80.3386
lclavicle 3.18055e-015 4.9895e-014
lhumerus -28.2035 -2.03432 80.926
lradius 25.2395
lwrist 0.467868
lhand -22.3741 -10.529
lfingers 7.12502
lthumb 4.04748 19.4123
rfemur -40.1819 8.97196 17.0241
rtibia 36.0269
rfoot -28.5616 -4.84523
rtoes -28.4517
lfemur -29.181 -14.3539 -15.1414
ltibia 12.9948
lfoot -10.3729 0.932452
ltoes -27.7211
576
root -6.41018 16.1651 -10.3594 -109.557 89.2054 -136.427
lowerback -27.3859 -2.58275 -5.63442
upperback -0.407922 -1.62883 1.25291
thorax 14.371 -1.08981 3.85402
lowerneck -21.9898 1.37451 5.36043
upperneck 41.4469 4.94197 -7.24935
head 20.4781 2.24996 -3.31008
rclavicle -7.95139e-016 -1.43125e-014
rhumerus -40.3505 -19.0487 -76.8192
rradius 34.6781
rwrist -3.57518
rhand 34.0745 -64.1996
rfingers 7.12502
rthumb 57.328 -80.5091
lclavicle -7.95139e-016 -1.43125e-014
lhumerus -28.2778 -1.37161 80.7786
lradius 24.8658
lwrist -0.182249
lhand -22.4475 -10.6354
lfingers 7.12502
lthumb 3.97665 19.3072
rfemur -39.8449 8.61942 17.4399
rtibia 35.7387
rfoot -28.612 -4.62719
rtoes -28.1738
lfemur -29.0514 -14.2208 -15.4328
ltibia 12.7772
lfoot -10.3855 1.30001
ltoes -27.3095
577
root -6.40724 16.1599 -10.3614 -69.0745 89.392 -96.0565
lowerback -27.5467 -2.54695 -5.78431
upperback -0.473338 -1.52371 1.27869
thorax 14.3644 -1.04949 4.0018
lowerneck -21.9753 1.41685 5.35434
upperneck 41.3845 4.97383 -7.20664
head 20.4328 2.26269 -3.27676
rclavicle -3.926e-015 3.04141e-014
rhumerus -40.3624 -19.503 -76.4532
rradius 34.4172
rwrist -2.89599
rhand 34.1585 -64.3036
rfingers 7.12502
rthumb 57.4017 -80.5499
lclavicle -3.926e-015 3.04141e-014
lhumerus -28.4394 -1.10671 80.7453
lradius 24.6626
lwrist -0.418754
lhand -22.3885 -10.6733
lfingers 7.12502
lthumb 4.03362 19.2683
rfemur -39.5887 8.08777 18.1543
rtibia 35.5205
rfoot -28.5539 -4.60199
rtoes -29.0158
lfemur -28.9826 -14.0908 -15.4095
ltibia 12.5436
lfoot -10.4062 1.57875
ltoes -25.5026
578
root -6.41359 16.1628 -10.3939 12.606 89.2153 -14.5365
lowerback -27.5994 -2.46613 -6.00515
upperback -0.600046 -1.30273 1.0459
thorax 14.2114 -0.945739 3.95204
lowerneck -21.9497 1.50242 5.38241
upperneck 41.303 5.06802 -7.1875
head 20.3818 2.30102 -3.24658
rclavicle 1.88845e-015 1.19271e-014
rhumerus -40.7243 -18.7798 -76.6137
rradius 34.9927
rwrist -3.31355
rhand 34.3359 -65.0542
rfingers 7.12502
rthumb 57.5572 -81.1664
lclavicle 1.88845e-015 1.19271e-014
lhumerus -28.604 -0.746827 80.6165
lradius 24.4568
lwrist -0.267151
lhand -21.9278 -10.8509
lfingers 7.12502
lthumb 4.47845 19.0817
rfemur -39.4774 7.40857 18.1718
rtibia 35.3131
rfoot -28.5373 -4.27042
rtoes -28.3087
lfemur -28.9251 -13.8461 -16.2133
ltibia 12.3289
lfoot -10.3909 1.74865
ltoes -24.8566
579
root -6.40287 16.1614 -10.3937 4.29071 89.0694 -23.0941
lowerback -27.9226 -2.56592 -5.99424
upperback -0.68761 -1.42536 1.15501
thorax 14.2811 -0.99933 4.01304
lowerneck -21.9766 1.57003 5.30342
upperneck 41.2477 5.1774 -7.15051
head 20.3612 2.32978 -3.18571
rclavicle -4.62174e-015 -4.57205e-015
rhumerus -40.7776 -18.5267 -76.5445
rradius 35.0677
rwrist -3.44918
rhand 34.5383 -65.5384
rfingers 7.12502
rthumb 57.7342 -81.4959
lclavicle -4.62174e-015 -4.57205e-015
lhumerus -28.5629 0.5813 80.3136
lradius 23.8144
lwrist -1.06254
lhand -21.6183 -11.1429
lfingers 7.12502
lthumb 4.77737 18.7833
rfemur -39.1989 6.39295 19.1342
rtibia 34.8452
rfoot -28.5583 -3.73672
rtoes -27.2328
lfemur -29.1071 -13.2753 -16.1461
ltibia 12.2616
lfoot -10.3206 1.47002
ltoes -26.1206
580
root -6.39322 16.1616 -10.3956 -7.94888 89.0354 -35.7661
lowerback -28.4831 -2.64892 -5.78818
upperback -0.76427 -1.56394 1.22009
thorax 14.4696 -1.04667 3.90857
lowerneck -22.0783 1.57739 5.21396
upperneck 41.2591 5.1909 -7.09121
head 20.3939 2.32376 -3.1376
rclavicle 5.76476e-015 3.26007e-014
rhumerus -40.5936 -18.7078 -76.4538
rradius 34.8229
rwrist -3.4649
rhand 34.5355 -65.8282
rfingers 7.12502
rthumb 57.7318 -81.7878
lclavicle 5.76476e-015 3.26007e-014
lhumerus -28.3671 1.99624 79.9673
lradius 22.9942
lwrist -2.25553
lhand -21.6356 -11.2921
lfingers 7.12502
lthumb 4.76068 18.6344
rfemur -39.0489 6.01418 19.9577
rtibia 34.165
rfoot -28.624 -3.85292
rtoes -26.0119
lfemur -29.5962 -12.9371 -15.8844
ltibia 12.3108
lfoot -10.3025 1.14697
ltoes -25.2862
